<svg xmlns="http://www.w3.org/2000/svg" viewBox="0 0 873.18 354.56"><defs><style>.cls-1{font-size:94.12px;font-family:Montserrat-Regular, Montserrat;}.cls-1,.cls-6{fill:#fff;}.cls-2{letter-spacing:-0.02em;}.cls-3{letter-spacing:-0.01em;}.cls-4{letter-spacing:0em;}.cls-5{fill:none;stroke:#fff;stroke-miterlimit:10;stroke-width:3px;}.cls-7{fill:#ff84b1;fill-rule:evenodd;}</style></defs><g id="Layer_2" data-name="Layer 2"><g id="Camada_1" data-name="Camada 1"><text class="cls-1" transform="translate(388.46 148.48)">TIPOS DE<tspan x="0" y="112.95">SER</tspan><tspan class="cls-2" x="188.9" y="112.95">V</tspan><tspan x="253.19" y="112.95">I</tspan><tspan class="cls-3" x="281.61" y="112.95">Ç</tspan><tspan class="cls-4" x="347.87" y="112.95">OS</tspan></text><circle class="cls-5" cx="177.28" cy="177.28" r="175.78"/><circle class="cls-6" cx="177.28" cy="177.28" r="158.53"/><path class="cls-7" d="M182.94,174.67l19.52,5.2c8.48,2.27,16,7.19,16,16v82.32a16,16,0,0,1-16,16h-57.9a16,16,0,0,1-16-16v-87.7a107.53,107.53,0,0,1,4.09-10.11L144,148.62l10.12-28.42h-2.58v-21h1.13a9.5,9.5,0,0,1-8.55-9.42V76.7a9.5,9.5,0,0,1,9.47-9.47h36.88a9.35,9.35,0,0,1,3.52.68l17,.57V67.37h10V85.28h-10v-.42l-3.72,1.45L216,135.42l-16.8-31.15-13.57.11V120.2h-4.41l1.71,54.47Zm26.88-93.28v-9.3l-16.6-.57-.6-.23a5.73,5.73,0,0,0-2.16-.42H153.58a5.86,5.86,0,0,0-5.83,5.83V89.83a5.86,5.86,0,0,0,5.83,5.83h36.88a5.86,5.86,0,0,0,5.83-5.83V86.65l13.53-5.26Zm-62,67.23h30.63l-.85-27.1H157.51Z"/></g></g></svg>