<svg xmlns="http://www.w3.org/2000/svg" xmlns:xlink="http://www.w3.org/1999/xlink" viewBox="0 0 143.84 143.84"><defs><style>.cls-1,.cls-2,.cls-4{fill:#401228;}.cls-1{clip-rule:evenodd;}.cls-2{fill-rule:evenodd;}.cls-3{clip-path:url(#clip-path);}</style><clipPath id="clip-path"><path class="cls-1" d="M103.39,42.26H40.45a6.11,6.11,0,0,0-5.07,2.22A8.65,8.65,0,0,0,33.61,50,10,10,0,0,0,36,55.88a21.13,21.13,0,0,0,5,4.93q1.45,1,8.77,6.1l6.89,4.78,4.31,3,.64.46,1.18.85q1.39,1,2.31,1.62c.61.42,1.35.88,2.22,1.39a13.43,13.43,0,0,0,2.46,1.16,7,7,0,0,0,2.14.38H72a7,7,0,0,0,2.14-.38A13.43,13.43,0,0,0,76.56,79c.87-.51,1.61-1,2.22-1.39s1.39-1,2.31-1.62l1.18-.85.64-.46,4.33-3,15.68-10.9a20.23,20.23,0,0,0,5.22-5.26,11.32,11.32,0,0,0,2.09-6.45,6.9,6.9,0,0,0-6.84-6.84m1.68,22.25q-8.73,5.91-14.85,10.18l19.13,19.13v-33A23.45,23.45,0,0,1,105.07,64.51Zm-66.26,0a22.18,22.18,0,0,1-4.32-3.72v33L53.62,74.68Q47.89,70.68,38.81,64.51Zm64.58,37.07a6.56,6.56,0,0,0,4.48-1.69L86.16,78.18l-1.5,1.08q-2.43,1.8-4,2.8a24.18,24.18,0,0,1-4,2,12.38,12.38,0,0,1-4.71,1h-.08a12.34,12.34,0,0,1-4.71-1,23.79,23.79,0,0,1-4-2q-1.52-1-4-2.8l-1.5-1.09L36,99.89a6.58,6.58,0,0,0,4.49,1.69Zm40.45-29.66A71.92,71.92,0,1,1,71.92,0,71.92,71.92,0,0,1,143.84,71.92Z"/></clipPath></defs><g id="Layer_2" data-name="Layer 2"><g id="Camada_1" data-name="Camada 1"><path class="cls-2" d="M103.39,42.26H40.45a6.11,6.11,0,0,0-5.07,2.22A8.65,8.65,0,0,0,33.61,50,10,10,0,0,0,36,55.88a21.13,21.13,0,0,0,5,4.93q1.45,1,8.77,6.1l6.89,4.78,4.31,3,.64.46,1.18.85q1.39,1,2.31,1.62c.61.42,1.35.88,2.22,1.39a13.43,13.43,0,0,0,2.46,1.16,7,7,0,0,0,2.14.38H72a7,7,0,0,0,2.14-.38A13.43,13.43,0,0,0,76.56,79c.87-.51,1.61-1,2.22-1.39s1.39-1,2.31-1.62l1.18-.85.64-.46,4.33-3,15.68-10.9a20.23,20.23,0,0,0,5.22-5.26,11.32,11.32,0,0,0,2.09-6.45,6.9,6.9,0,0,0-6.84-6.84m1.68,22.25q-8.73,5.91-14.85,10.18l19.13,19.13v-33A23.45,23.45,0,0,1,105.07,64.51Zm-66.26,0a22.18,22.18,0,0,1-4.32-3.72v33L53.62,74.68Q47.89,70.68,38.81,64.51Zm64.58,37.07a6.56,6.56,0,0,0,4.48-1.69L86.16,78.18l-1.5,1.08q-2.43,1.8-4,2.8a24.18,24.18,0,0,1-4,2,12.38,12.38,0,0,1-4.71,1h-.08a12.34,12.34,0,0,1-4.71-1,23.79,23.79,0,0,1-4-2q-1.52-1-4-2.8l-1.5-1.09L36,99.89a6.58,6.58,0,0,0,4.49,1.69Zm40.45-29.66A71.92,71.92,0,1,1,71.92,0,71.92,71.92,0,0,1,143.84,71.92Z"/><g class="cls-3"><rect class="cls-4" width="143.84" height="143.84"/></g></g></g></svg>