<svg xmlns="http://www.w3.org/2000/svg" xmlns:xlink="http://www.w3.org/1999/xlink" viewBox="0 0 146.23 146.23"><defs><style>.cls-1{fill:none;clip-rule:evenodd;}.cls-2{clip-path:url(#clip-path);}.cls-3{fill:#401228;}</style><clipPath id="clip-path"><path class="cls-1" d="M73.12,0A73.12,73.12,0,1,1,0,73.12,73.11,73.11,0,0,1,73.12,0Z"/></clipPath></defs><g id="Layer_2" data-name="Layer 2"><g id="Camada_1" data-name="Camada 1"><g class="cls-2"><path class="cls-3" d="M73.25,90a16.81,16.81,0,1,0-16.8-16.81A16.82,16.82,0,0,0,73.25,90Z"/><path class="cls-3" d="M92.42,55.79h12.37c1.43,0,1.86-1.86,1.86-1.86V41.67c0-2-2.17-2.18-2.17-2.18H92.65c-2.19,0-2.4,2.4-2.4,2.4V53.5A2.26,2.26,0,0,0,92.42,55.79Z"/><path class="cls-3" d="M93.25,90.28C86.39,99,73.71,99.55,73.71,99.55a27.3,27.3,0,0,1-17.48-6.26C43,82.42,47.76,66.18,47.76,66.18H39.47s-.1,36.06-.1,38,2.44,2.44,2.44,2.44h62.5c2.4,0,2.57-2.54,2.57-2.54V66H98.81C102.06,79.92,93.25,90.28,93.25,90.28Z"/><path class="cls-3" d="M0,0V146.23H146.23V0ZM115.69,104.51c0,6.9-5.31,12.52-11.86,12.52H42.4c-6.56,0-11.86-5.62-11.86-12.52V41.72c0-6.9,5.3-12.52,11.86-12.52h61.43c6.55,0,11.86,5.62,11.86,12.52Z"/></g></g></g></svg>