<svg xmlns="http://www.w3.org/2000/svg" xmlns:xlink="http://www.w3.org/1999/xlink" viewBox="0 0 146.23 146.23"><defs><style>.cls-1,.cls-2,.cls-4{fill:#401228;}.cls-1{clip-rule:evenodd;}.cls-2{fill-rule:evenodd;}.cls-3{clip-path:url(#clip-path);}</style><clipPath id="clip-path"><path class="cls-1" d="M57.64,51.55c-2.38.74-4.6,3.88-5.39,6.64a14.37,14.37,0,0,0,1,10.19C55.42,73.15,60,78.65,63.57,82.23a43.28,43.28,0,0,0,6.68,5.33c2.53,1.74,5.42,2.69,8.34,3.8,2.76,1.06,6.52,2.4,9.75,1.63,2.78-.65,6.06-2.15,7.5-4.63A11.09,11.09,0,0,0,97,83.57c0-1.23-.23-1.4-1.12-1.86-.73-.38-1.39-.72-2.06-1-1.46-.67-7.23-3.92-8.49-3.25-1.67.88-3.73,6.4-6.28,5.44A29.56,29.56,0,0,1,65.34,72.39C61.87,67.57,63,68.8,65.81,65c1.22-1.64,1.33-2.25.47-4.25-.65-1.48-1.15-2.74-1.79-4.29a26.55,26.55,0,0,0-1.89-4.18c-.58-.78-.91-.81-2.06-.82a9.89,9.89,0,0,0-2.9.11M38.17,108.33a31.07,31.07,0,0,0,3.88-1.15l9.6-3.08c1-.34,1-.46,1.85.07a38.19,38.19,0,0,0,14.76,5.45,39.3,39.3,0,0,0,17.89-1.57A38.89,38.89,0,0,0,103.9,95.57a37.11,37.11,0,0,0,4-6.15c2.47-5.15,4.1-9.91,4.23-16a37.64,37.64,0,0,0-3.31-17c-3.08-6.47-8.12-12.67-14-16.23a40.3,40.3,0,0,0-6.67-3.5,38.83,38.83,0,0,0-17.35-2.61c-10.22.63-20.79,6.39-26.61,13.83A39,39,0,0,0,37.16,61a38.3,38.3,0,0,0-.56,20c.15.59.42,1.17.59,1.88a36.22,36.22,0,0,0,4.93,10.38c.92,1.34.71,1.14-.13,3.59C41.43,98.42,38.26,107.46,38.17,108.33Zm80.62-43.74A44.67,44.67,0,0,0,106.06,40,45.57,45.57,0,0,0,85.71,28.34a43,43,0,0,0-6.81-1.25l-2-.19-.11,0-.22-.08H70.5a38.7,38.7,0,0,1-4.06.66c-1.38.22-2.6.46-3.9.79a44.84,44.84,0,0,0-13,5.61,41.27,41.27,0,0,0-5.35,4A45.35,45.35,0,0,0,29.77,60.71a46.27,46.27,0,0,0,.66,24.72,50.16,50.16,0,0,0,2.68,6.66c1.57,3.68,2.41,1.86.67,6.53-.9,2.42-1.5,4.76-2.35,7s-1.65,4.68-2.37,6.94c-.4,1.24-2.17,6.11-2.28,6.9l7.15-2.19c2.3-.76,4.57-1.46,6.93-2.23s4.67-1.49,7.08-2.25c5-1.57,3.06-1.53,6.58.1A46.38,46.38,0,0,0,86,115.58a45.72,45.72,0,0,0,29.76-25.71A43.41,43.41,0,0,0,118.79,64.59ZM73.12,0A73.12,73.12,0,1,1,0,73.12,73.11,73.11,0,0,1,73.12,0Z"/></clipPath></defs><g id="Layer_2" data-name="Layer 2"><g id="Camada_1" data-name="Camada 1"><path class="cls-2" d="M57.64,51.55c-2.38.74-4.6,3.88-5.39,6.64a14.37,14.37,0,0,0,1,10.19C55.42,73.15,60,78.65,63.57,82.23a43.28,43.28,0,0,0,6.68,5.33c2.53,1.74,5.42,2.69,8.34,3.8,2.76,1.06,6.52,2.4,9.75,1.63,2.78-.65,6.06-2.15,7.5-4.63A11.09,11.09,0,0,0,97,83.57c0-1.23-.23-1.4-1.12-1.86-.73-.38-1.39-.72-2.06-1-1.46-.67-7.23-3.92-8.49-3.25-1.67.88-3.73,6.4-6.28,5.44A29.56,29.56,0,0,1,65.34,72.39C61.87,67.57,63,68.8,65.81,65c1.22-1.64,1.33-2.25.47-4.25-.65-1.48-1.15-2.74-1.79-4.29a26.55,26.55,0,0,0-1.89-4.18c-.58-.78-.91-.81-2.06-.82a9.89,9.89,0,0,0-2.9.11M38.17,108.33a31.07,31.07,0,0,0,3.88-1.15l9.6-3.08c1-.34,1-.46,1.85.07a38.19,38.19,0,0,0,14.76,5.45,39.3,39.3,0,0,0,17.89-1.57A38.89,38.89,0,0,0,103.9,95.57a37.11,37.11,0,0,0,4-6.15c2.47-5.15,4.1-9.91,4.23-16a37.64,37.64,0,0,0-3.31-17c-3.08-6.47-8.12-12.67-14-16.23a40.3,40.3,0,0,0-6.67-3.5,38.83,38.83,0,0,0-17.35-2.61c-10.22.63-20.79,6.39-26.61,13.83A39,39,0,0,0,37.16,61a38.3,38.3,0,0,0-.56,20c.15.59.42,1.17.59,1.88a36.22,36.22,0,0,0,4.93,10.38c.92,1.34.71,1.14-.13,3.59C41.43,98.42,38.26,107.46,38.17,108.33Zm80.62-43.74A44.67,44.67,0,0,0,106.06,40,45.57,45.57,0,0,0,85.71,28.34a43,43,0,0,0-6.81-1.25l-2-.19-.11,0-.22-.08H70.5a38.7,38.7,0,0,1-4.06.66c-1.38.22-2.6.46-3.9.79a44.84,44.84,0,0,0-13,5.61,41.27,41.27,0,0,0-5.35,4A45.35,45.35,0,0,0,29.77,60.71a46.27,46.27,0,0,0,.66,24.72,50.16,50.16,0,0,0,2.68,6.66c1.57,3.68,2.41,1.86.67,6.53-.9,2.42-1.5,4.76-2.35,7s-1.65,4.68-2.37,6.94c-.4,1.24-2.17,6.11-2.28,6.9l7.15-2.19c2.3-.76,4.57-1.46,6.93-2.23s4.67-1.49,7.08-2.25c5-1.57,3.06-1.53,6.58.1A46.38,46.38,0,0,0,86,115.58a45.72,45.72,0,0,0,29.76-25.71A43.41,43.41,0,0,0,118.79,64.59ZM73.12,0A73.12,73.12,0,1,1,0,73.12,73.11,73.11,0,0,1,73.12,0Z"/><g class="cls-3"><rect class="cls-4" width="146.23" height="146.23"/></g></g></g></svg>