<?xml version="1.0" encoding="utf-8"?>
<!-- Generator: Adobe Illustrator 24.2.3, SVG Export Plug-In . SVG Version: 6.00 Build 0)  -->
<svg version="1.1" id="Camada_1" xmlns="http://www.w3.org/2000/svg" xmlns:xlink="http://www.w3.org/1999/xlink" x="0px" y="0px"
	 viewBox="0 0 800 800" style="enable-background:new 0 0 800 800;" xml:space="preserve">
<style type="text/css">
	.st0{fill:#401228;}
	.st1{font-family:'Oswald-Light';}
	.st2{font-size:62.654px;}
	.st3{font-size:48.5388px;}
	.st4{font-family:'AmazoneBT-Regular';}
	.st5{font-size:112.1671px;}
	.st6{opacity:0.5;fill:#E54091;}
	.st7{opacity:0.5;fill:#641C3F;}
	.st8{opacity:6.000000e-02;}
	.st9{opacity:0.14;}
	.st10{opacity:0.3;fill:#FFFFFF;}
	.st11{opacity:0.5;fill:#FFFFFF;}
	.st12{opacity:0.2;}
	.st13{clip-path:url(#SVGID_2_);}
</style>
<g>
	<g>
		<g>
			<polygon class="st0" points="199.5,495.2 175.8,495.2 175.8,594.9 170.5,594.9 170.5,495.2 147.3,495.2 147.3,489.9 199.5,489.9 
							"/>
			<path class="st0" d="M255.3,594.7c-24.9,2.5-45.7-18.3-43.2-43.2c1.8-18.4,16.7-33.3,35.1-35.2c24.9-2.5,45.7,18.3,43.2,43.2
				C288.6,577.9,273.7,592.8,255.3,594.7 M255.3,520.5c-21.4-2.1-41.4,17.6-39.2,39c1.6,15.8,16.7,29.6,32.6,31.2
				c21.4,2.1,38.4-17.4,36.3-38.8C283.3,536.2,271.1,522.1,255.3,520.5 M263.6,504.6l-11.5-12.1c-0.1-0.1-0.3-0.1-0.4,0l-11.3,12.1
				c-0.1,0.1-0.1,0.3,0,0.3l3.7,3.4c0.1,0.1,0.2,0.1,0.3,0l7.3-7.5c0.1-0.1,0.3-0.1,0.3,0l7.5,7.5c0.1,0.1,0.2,0.1,0.3,0l3.7-3.4
				C263.7,504.9,263.7,504.7,263.6,504.6"/>
			<polygon class="st0" points="377.8,498 377.7,593.3 372.3,593.1 372.4,506.5 344.9,530.1 339.9,530.1 311.3,506 311.3,594.9 
				306,594.9 306.3,498 311.2,498 342.1,525.6 373.7,498 			"/>
			<path class="st0" d="M453.6,531.8v60.8h-4.8V579c-5.6,9.5-16.2,15.8-27.9,15.8c-18.1,0-32.9-14.6-32.9-32.7
				c0-18.1,14.8-32.7,32.9-32.7c11.8,0,22.3,6.5,27.9,16v-13.6H453.6z M448.8,562.1c0-15.5-12.6-28.1-27.9-28.1
				c-15.5,0-28.1,12.6-28.1,28.1c0,15.5,12.6,28.1,28.1,28.1C436.2,590.3,448.8,577.6,448.8,562.1"/>
			<rect x="465.4" y="532.4" class="st0" width="4.7" height="62.5"/>
			<path class="st0" d="M523.8,579.2c0,10.2-11.4,15.7-22.7,15.7c-10.9,0-22-5.1-22.5-15h4.6c0.7,7.7,9.5,11.2,17.9,11.2
				c4.8,0,9.4-1.2,12.6-3.1c3.6-2.2,5.3-5.3,5.3-8.9c0-5.1-1.7-8.5-5.3-10.7c-3.4-2.2-8.2-3.2-14.1-4.4c-0.3,0-0.5-0.2-0.8-0.2
				c-0.3,0-0.7-0.3-1-0.3c-4.3-1-8.9-1.9-12.3-3.9c-4.6-2.6-6.8-6.5-6.8-11.8c0-10.6,11.6-16.2,23.2-16.2c5.6,0,10.9,1.4,14.8,3.8
				c4.3,2.7,6.6,6.5,7,10.9h-4.8c-0.2-3.2-1.9-6-5.1-7.8c-3.1-1.9-7.3-2.9-11.9-2.9c-9,0-18.6,3.7-18.6,12.3
				c0,8.5,6.6,10.2,17.6,12.4C511.5,562.5,523.8,564.9,523.8,579.2"/>
			<polygon class="st0" points="560.1,594.9 555,594.7 520.1,490.6 525.4,490.6 557.6,587 590,490.6 595.1,490.6 			"/>
			<rect x="591.2" y="525.2" class="st0" width="5.2" height="69.2"/>
			<path class="st0" d="M640.5,592.3c-12.3,0-23.3-6.5-29.1-16.4v56.6h-4.9V526.9h4.9V541c5.8-9.9,16.7-16.4,29.1-16.4
				c18.5,0,33.8,15.2,33.8,33.8C674.3,577.2,659,592.3,640.5,592.3 M640.5,529.4c-16,0-29.1,13-29.1,29.1c0,16,13,29.1,29.1,29.1
				c15.9,0,28.9-13.1,28.9-29.1C669.4,542.5,656.3,529.4,640.5,529.4"/>
			<polygon class="st0" points="468.8,508.4 470.6,514 476.5,514 471.8,517.4 473.6,523 468.8,519.6 464.1,523 465.9,517.4 
				461.2,514 467,514 			"/>
		</g>
		<text transform="matrix(1 0 0 1 293.6946 662.748)" class="st0 st1 st2">DIARISTAS</text>
		<rect x="163.3" y="613.2" class="st0" width="127.3" height="8.2"/>
		<rect x="529.6" y="613.2" class="st0" width="75.2" height="8.2"/>
		<rect x="612.9" y="613.2" class="st0" width="52.6" height="8.2"/>
		<g>
			<text transform="matrix(1 0 0 1 655.5593 525.2051)" class="st0 st1 st3">®</text>
		</g>
	</g>
	<text transform="matrix(1 0 0 1 504.6843 438.0225)" class="st0 st4 st5" style="text-decoration: underline;">anos</text>
	<g>
		<g>
			<path class="st6" d="M521.1,329c0,0.8-0.1,1.6-0.1,2.3c0,0.5,0,1-0.1,1.5c-0.1,2.1-0.3,4.2-0.5,6.3v0.5c-0.1,0.9-0.2,1.9-0.3,2.8
				c0,0.3,0,0.6-0.1,0.9c-0.2,1.4-0.4,2.8-0.6,4.2c0,0,0,0.1,0,0.1c-0.3,2.3-0.7,4.6-1.2,6.9c0,0.1,0,0.1,0,0.1c-0.2,1-0.4,2-0.7,3
				c-0.7,2.8-1.4,5.5-2.1,8.2c-0.6,1.9-1.1,3.7-1.8,5.6c-0.4-1.3-0.8-2.5-1.3-3.7c-0.3-0.9-0.7-1.8-1-2.6v0c0-0.2-0.1-0.4-0.2-0.5
				c-0.1-0.2-0.1-0.4-0.2-0.6c-0.5-1.3-1-2.5-1.5-3.7c-0.2-0.5-0.4-1-0.7-1.5v0c-0.1-0.1-0.1-0.3-0.2-0.4l0,0c0-0.2-0.1-0.4-0.2-0.5
				c-0.5-1.2-1.1-2.3-1.7-3.5c-0.1-0.3-0.3-0.6-0.4-0.8c-0.1-0.2-0.2-0.5-0.4-0.7c-0.3-0.6-0.6-1.3-0.9-1.9
				c-0.4-0.7-0.8-1.5-1.3-2.2c-0.2-0.4-0.4-0.8-0.6-1.1c0,0,0,0,0,0c-0.2-0.4-0.4-0.8-0.7-1.1c-0.8-1.5-1.7-2.9-2.6-4.4
				c-1.1-1.8-2.2-3.5-3.4-5.2c-0.2-0.3-0.4-0.6-0.6-0.8c-1.1-1.5-2.2-3.1-3.3-4.6c-1-1.3-2-2.6-3-3.8c-0.5-0.7-1-1.3-1.6-1.9
				c-0.3-0.4-0.7-0.8-1.1-1.3c-0.8-1-1.8-2.1-2.7-3.1c-0.1-0.2-0.3-0.4-0.5-0.6c-1.3-1.4-2.7-2.9-4.1-4.2l-101-101.1L277.3,316.6
				c-2,2-3.9,4.1-5.8,6.1c-1.1,1.2-2.1,2.5-3.2,3.7c-0.4,0.4-0.7,0.8-1.1,1.3c-1.3,1.5-2.5,3.1-3.6,4.7c-0.3,0.5-0.7,0.9-1,1.4
				c-0.6,0.8-1.2,1.6-1.8,2.5c-0.5,0.7-0.9,1.3-1.3,2c-0.2,0.3-0.5,0.6-0.7,0.9c-1.2,1.9-2.4,3.8-3.6,5.7c-0.6,0.9-1.1,1.8-1.6,2.8
				c-0.1,0.2-0.2,0.4-0.3,0.5c-0.5,0.9-1,1.9-1.5,2.9c-0.7,1.2-1.3,2.4-1.9,3.6c-0.1,0.2-0.2,0.4-0.3,0.7c-0.2,0.3-0.3,0.7-0.5,1
				c-0.1,0.2-0.2,0.4-0.3,0.6c-0.2,0.4-0.4,0.7-0.5,1c-0.4,0.9-0.8,1.7-1.1,2.6c-0.4,0.7-0.7,1.5-1,2.3c-0.1,0.3-0.2,0.5-0.4,0.8
				c0,0,0,0.1,0,0.1c-1.1,2.7-2.1,5.3-2.9,7.9c-0.7-1.9-1.2-3.7-1.8-5.6c-0.4-1.3-0.7-2.5-1.1-3.8c-0.4-1.3-0.7-2.6-1-4
				c-0.4-1.5-0.7-3-1-4.5c-0.3-1.5-0.6-3-0.8-4.5c-0.3-1.5-0.5-3-0.7-4.6c-0.2-1.3-0.3-2.6-0.5-3.8c0-0.5-0.1-0.9-0.1-1.4
				c-0.1-1.3-0.2-2.7-0.3-4c0,0,0,0,0,0c-0.1-1.4-0.2-2.8-0.2-4.2c-0.1-1.9-0.1-3.8-0.1-5.7c0-2.7,0.1-5.5,0.3-8.2
				c1.9-33.8,15.7-67.1,41.6-92.9l100.9-100.9c0.1-0.1,0.1-0.1,0.1-0.1l101,101c7.6,7.6,14.1,15.7,19.6,24.4c0,0,0.1,0.1,0.1,0.1
				c13.3,20.9,20.6,44.4,21.9,68.3C521.1,321.3,521.2,325.1,521.1,329z"/>
			<path class="st0" d="M477.3,428.5c-27.6,26.6-63.3,39.9-99,39.9c-27.5,0-55-7.9-78.8-23.7c-0.2-0.1-0.3-0.2-0.4-0.2
				c-7-4.6-13.6-10-19.8-16l3.9-3.9l95.2-95.1l95.7,95.7v0l0.3,0.3L477.3,428.5z"/>
			<path class="st7" d="M513.6,371.6c-4.6,13.8-11.5,27-20.5,39.2c-0.8,1.1-1.7,2.2-2.6,3.4c-0.8,1.1-1.7,2.2-2.6,3.2
				c-1.8,2.1-3.6,4.2-5.6,6.3c-0.9,1-1.9,2-2.9,3c-0.6,0.7-1.3,1.3-2,1.9h0l-3-2.9l-0.3-0.3v0l-95.7-95.7l-95.2,95.1l-3.9,3.9
				c-0.7-0.6-1.4-1.3-2-1.9c-5-5-9.6-10.3-13.7-15.9c-9-12.1-15.8-25.4-20.5-39.2c0.8-2.7,1.8-5.3,2.9-7.9c0,0,0-0.1,0-0.1
				c0.1-0.3,0.2-0.5,0.4-0.8c0.3-0.8,0.6-1.5,1-2.3c0.7-1.7,1.5-3.5,2.4-5.2c0.7-1.4,1.4-2.9,2.2-4.3c1.1-2.1,2.2-4.1,3.4-6.1
				c1.1-1.9,2.3-3.8,3.6-5.7c0.1-0.1,0.1-0.2,0.2-0.3c1.1-1.7,2.3-3.5,3.6-5.2c0.3-0.4,0.6-0.8,0.9-1.2c1.3-1.7,2.6-3.4,3.9-5
				c0-0.1,0-0.1,0.1-0.1c1.3-1.5,2.6-3.1,3.9-4.6c1.9-2.1,3.8-4.1,5.8-6.1l101.1-101.1l101,101.1c4.7,4.7,9.1,9.7,13,14.9
				c6.3,8.3,11.5,17.1,15.8,26.3c0.1,0.2,0.2,0.4,0.3,0.7c0.1,0.1,0.2,0.3,0.2,0.4v0c0.2,0.5,0.5,1,0.7,1.5c0.6,1.2,1.1,2.4,1.5,3.7
				c0.2,0.3,0.3,0.7,0.5,1.1v0c0.3,0.8,0.7,1.7,1,2.6C512.7,369.1,513.2,370.3,513.6,371.6z"/>
			<path class="st8" d="M378.3,329.5l-99.1,99c-0.7-0.6-1.4-1.3-2-1.9c-5-5-9.6-10.3-13.7-15.9L378.3,329.5z"/>
			<path class="st8" d="M378.3,215.5L277.3,316.6c-2,2-3.9,4.1-5.8,6.1c-1.1,1.3-2.1,2.5-3.2,3.7c-0.4,0.4-0.7,0.8-1.1,1.3
				c-1.3,1.5-2.5,3.1-3.6,4.7c-0.3,0.5-0.7,0.9-1,1.4c-0.6,0.8-1.2,1.6-1.8,2.5c-0.5,0.7-0.9,1.3-1.3,2c-0.2,0.3-0.5,0.6-0.7,0.9
				c-1.2,1.9-2.4,3.8-3.6,5.7c-0.6,0.9-1.1,1.8-1.6,2.8c-0.1,0.2-0.2,0.4-0.3,0.5c-0.5,0.9-1,1.9-1.5,2.9c-0.7,1.2-1.3,2.4-1.9,3.6
				c-0.1,0.2-0.2,0.4-0.3,0.7c-0.2,0.3-0.3,0.7-0.5,1c-0.1,0.2-0.2,0.4-0.3,0.6c-0.6,1.2-1.1,2.4-1.6,3.6c-0.4,0.7-0.7,1.5-1,2.3
				c-1.2,2.9-2.3,5.9-3.3,8.9c-0.7-1.9-1.2-3.7-1.8-5.6c-0.4-1.3-0.7-2.5-1.1-3.8c-0.4-1.3-0.7-2.6-1-4c-0.4-1.5-0.7-3-1-4.5
				c-0.3-1.5-0.6-3-0.8-4.5c-0.3-1.5-0.5-3-0.7-4.6c-0.2-1.3-0.3-2.6-0.5-3.8c0-0.5-0.1-0.9-0.1-1.4c-0.1-1.3-0.2-2.7-0.3-4
				c0,0,0,0,0,0c-0.1-1.4-0.2-2.8-0.2-4.2c-0.1-1.9-0.1-3.8-0.1-5.7c0-2.7,0.1-5.5,0.3-8.2l1.5-1.1L358.1,230L378.3,215.5z"/>
			<path class="st8" d="M493.1,410.8c-0.8,1.1-1.7,2.2-2.6,3.4c-0.8,1.1-1.7,2.2-2.6,3.2c-1.8,2.1-3.6,4.2-5.6,6.3
				c-0.9,1-1.9,2.1-2.9,3h-0.1c-0.6,0.7-1.3,1.3-2,1.9h0l-3.3-3.3c0,0,0,0,0,0c0-0.1-0.1-0.2-0.2-0.3l-95.5-95.4l19.3,13.6l91.7,65
				L493.1,410.8z"/>
			<path class="st8" d="M517.5,357.8c-0.6,2.7-1.3,5.5-2.1,8.2c-0.6,1.9-1.1,3.7-1.8,5.6c-0.4-1.3-0.8-2.5-1.3-3.7
				c-0.3-0.9-0.7-1.8-1-2.6c-0.1-0.4-0.3-0.7-0.4-1.1c-0.5-1.3-1-2.5-1.5-3.7c-0.2-0.5-0.4-1-0.7-1.5c-0.1-0.2-0.1-0.3-0.2-0.5
				c0-0.2-0.1-0.5-0.3-0.7c-4.2-9.2-9.4-18-15.8-26.3c-3.9-5.2-8.2-10.2-12.9-14.9h-0.1l-101-101.1l20,14.3l119.4,85.3l3.1,2.2
				l0.1,0.1c0.2,2.7,0.3,5.5,0.3,8.2c0,1.1-0.1,2.2-0.1,3.4c0,0.8-0.1,1.6-0.1,2.4c-0.1,2.7-0.3,5.4-0.6,8.1c-0.1,1.3-0.3,2.7-0.4,4
				c-0.2,1.4-0.3,2.8-0.6,4.2c-0.4,2.4-0.8,4.8-1.3,7.2C518,355.7,517.7,356.8,517.5,357.8z"/>
			<path class="st9" d="M474.4,425.6l-96-96l-95.2,95.1c7.3-8.6,14.9-16.8,22.4-25.2c7.6-8.3,15.2-16.5,22.9-24.6
				c7.7-8.2,15.5-16.2,23.3-24.3l23.6-23.9l2.9-3l2.9,3l23.8,24.2c7.9,8.2,15.8,16.2,23.5,24.5c7.8,8.2,15.5,16.5,23.2,24.9
				C459.3,408.6,467,416.9,474.4,425.6z"/>
			<path class="st9" d="M508.6,358.9c-6.9-15.3-16.7-29.7-29.3-42.3l-101-101.1L277.3,316.6c-13.9,13.9-24.3,29.9-31.2,46.9
				c5.4-15.8,14.1-30.4,24.9-43.3c2.7-3.2,5.7-6.3,8.5-9.3l8.5-9.1l17.3-18c23.1-24,46.5-47.7,70-71.3l2.9-2.9l2.9,2.9l34.2,34.6
				c11.3,11.6,22.7,23.2,33.9,34.9l16.9,17.5l8.3,8.8c2.7,3,5.6,5.9,8.4,8.9C493.9,329.7,502.8,343.6,508.6,358.9z"/>
			<path class="st10" d="M474.4,425.6c-8.7-7.4-17-15.1-25.5-22.6c-8.4-7.7-16.7-15.4-24.9-23.2c-8.3-7.8-16.3-15.7-24.5-23.5
				l-21.2-21l-21,20.8c-8.1,7.8-16.1,15.6-24.3,23.3c-8.2,7.8-16.4,15.3-24.7,23c-8.4,7.4-16.6,15-25.2,22.3l95.2-95.1L474.4,425.6z
				"/>
			<path class="st10" d="M508.6,358.9c-7.5-14.4-17-27.6-28.5-38.7c-11.7-11.1-23.6-22.3-35.2-33.6c-11.7-11.2-23.3-22.6-34.9-33.9
				l-31.7-31.4c-22.6,22.6-45.3,45-68.3,67.1l-18,17.3c-6,5.7-12.3,11.4-18,17.2c-11.5,11.7-20.8,25.5-27.9,40.5
				c6.9-17,17.3-33.1,31.2-46.9l101.1-101.1l101,101.1C492,329.2,501.7,343.5,508.6,358.9z"/>
			<path class="st11" d="M378.2,123.7c-1.2,1.5-11.5,13.8-27.3,31c-8.4,9.2-18.3,19.8-29,31.1c-5.4,5.6-10.9,11.4-16.6,17.2
				c-5.7,5.8-11.6,11.7-17.4,17.6c-2.9,2.9-6,5.8-8.7,8.6c-3,3-5.5,5.9-8,8.9c-5,6.1-9.6,12.4-13.5,18.9c-7.8,12.9-13,26.2-16.2,38
				c-1.7,5.9-2.7,11.4-3.6,16.3c-0.3,1.8-0.5,3.5-0.7,5c-0.4,2.9-0.7,5.5-0.8,7.8c-0.3,3.5-0.3,6.4-0.5,8.4
				c-0.1,1.7-0.1,2.7-0.1,2.9c-0.1-1.4-0.2-2.8-0.2-4.2c-0.1-1.9-0.1-3.8-0.1-5.7c0-2.7,0.1-5.5,0.3-8.2
				c1.9-33.8,15.7-67.1,41.6-92.9L378.2,123.7z"/>
			<path class="st12" d="M517.5,357.8c-0.6,2.7-1.3,5.5-2.1,8.2c-0.6,1.9-1.1,3.7-1.8,5.6c-4.6,13.8-11.5,27-20.5,39.2
				c-0.8,1.1-1.7,2.2-2.6,3.4c-0.8,1.1-1.7,2.2-2.6,3.2c-1.8,2.1-3.6,4.2-5.6,6.3c-0.9,1-1.9,2.1-2.9,3h-0.1c-0.6,0.7-1.3,1.3-2,1.9
				h0c-27.6,26.6-63.3,39.9-99,39.9c-27.5,0-55-7.9-78.8-23.7c0.6,0.3,1.6,0.9,2.8,1.6c2.5,1.4,6.3,3.3,11.1,5.6
				c9.6,4.4,24,9.6,41.8,12c8.9,1.2,18.5,1.6,28.9,1c10.1-0.6,20.8-2.6,31.5-5.6c10.7-3,21.2-7.8,31.3-13.5
				c9.7-5.7,18.6-12.4,27-20.5c0,0,0,0.1,0,0v0c0,0,0,0,0,0c0.3-0.3,0.6-0.6,0.9-0.9c5.1-5,10-10.4,14.3-16.2
				c2.7-3.6,5.2-7.3,7.5-11.1c6-10,10.9-20.4,14.2-31.1c0.1-0.2,0.1-0.5,0.2-0.7h0v0c3.2-10.4,5.2-20.6,6.1-30.6
				c0.6-6.7,0.7-13.2,0.4-19.4c-0.1-3.2-0.4-6.4-0.7-9.4c-1-8.9-2.6-17-4.6-24.1c-1.9-7.1-4.4-13.1-6.4-18
				c-2.2-4.8-3.9-8.6-5.3-11.1c-0.8-1.6-1.4-2.8-1.8-3.4c13.3,20.9,20.6,44.4,21.9,68.3l0.1,0.1c0.2,2.7,0.3,5.5,0.3,8.2
				c0,1.1-0.1,2.2-0.1,3.4c0,0.8-0.1,1.6-0.1,2.4c-0.1,2.7-0.3,5.4-0.6,8.1c-0.1,1.3-0.3,2.7-0.4,4c-0.2,1.4-0.3,2.8-0.6,4.2
				c-0.4,2.4-0.8,4.8-1.3,7.2C518,355.7,517.7,356.8,517.5,357.8z"/>
		</g>
		<g>
			<defs>
				<path id="SVGID_1_" d="M149,192.3c-12.5,6.9-34.5,14.3-47.9,21.2V160c12.5-6.5,51.8-26.8,63.5-38.9h56.6v349.8H149V192.3z"/>
			</defs>
			<clipPath id="SVGID_2_">
				<use xlink:href="#SVGID_1_"  style="overflow:visible;"/>
			</clipPath>
			<g class="st13">
				<path class="st6" d="M352.7,316.3c0,0.9-0.1,1.9-0.1,2.7c-0.1,0.6-0.1,1.1-0.1,1.7c-0.1,2.5-0.3,4.9-0.6,7.4v0.5
					c-0.2,1.1-0.3,2.3-0.4,3.3c-0.1,0.4-0.1,0.7-0.1,1.1c-0.2,1.6-0.4,3.3-0.7,4.9c0,0.1,0,0.1-0.1,0.2c-0.4,2.7-0.9,5.4-1.4,8.1
					c-0.1,0.1-0.1,0.1-0.1,0.2c-0.2,1.2-0.5,2.4-0.8,3.6c-0.8,3.2-1.6,6.5-2.5,9.7c-0.7,2.2-1.3,4.4-2.1,6.6c-0.5-1.5-1-3-1.5-4.4
					c-0.4-1-0.8-2.1-1.2-3.1v0c-0.1-0.2-0.2-0.4-0.3-0.6c-0.1-0.2-0.2-0.4-0.3-0.7c-0.5-1.5-1.1-2.9-1.8-4.3
					c-0.2-0.6-0.5-1.2-0.8-1.8v0c-0.1-0.2-0.2-0.3-0.3-0.5l-0.1-0.1c0-0.2-0.1-0.4-0.2-0.6c-0.6-1.4-1.3-2.7-2-4.1
					c-0.2-0.4-0.3-0.7-0.5-1c-0.1-0.3-0.3-0.5-0.4-0.8c-0.3-0.8-0.7-1.5-1.1-2.2c-0.5-0.9-1-1.8-1.5-2.6c-0.2-0.4-0.4-0.9-0.7-1.3
					c0,0,0,0,0,0c-0.2-0.4-0.5-0.9-0.8-1.3c-0.9-1.8-2-3.5-3.1-5.2c-1.3-2.1-2.6-4.1-4-6.1c-0.3-0.3-0.5-0.7-0.7-1
					c-1.3-1.8-2.6-3.6-3.9-5.4c-1.1-1.5-2.4-3-3.6-4.5c-0.6-0.8-1.2-1.5-1.9-2.3c-0.4-0.5-0.8-1-1.3-1.5c-1-1.2-2.1-2.4-3.2-3.6
					c-0.2-0.2-0.4-0.4-0.6-0.7c-1.5-1.7-3.1-3.3-4.8-5L185,183L66.2,301.7c-2.4,2.4-4.6,4.8-6.8,7.2c-1.3,1.4-2.5,2.9-3.7,4.4
					c-0.4,0.5-0.8,1-1.3,1.5c-1.5,1.8-2.9,3.7-4.3,5.5c-0.4,0.5-0.8,1-1.1,1.6c-0.7,0.9-1.4,1.9-2.1,2.9c-0.6,0.8-1,1.5-1.5,2.3
					c-0.3,0.4-0.6,0.7-0.8,1.1c-1.4,2.2-2.9,4.4-4.2,6.7c-0.7,1.1-1.3,2.1-1.9,3.2c-0.1,0.2-0.2,0.4-0.4,0.6
					c-0.6,1.1-1.1,2.3-1.8,3.3c-0.8,1.4-1.5,2.9-2.2,4.3c-0.1,0.2-0.3,0.5-0.3,0.8c-0.2,0.4-0.4,0.8-0.5,1.2
					c-0.2,0.2-0.2,0.4-0.3,0.7c-0.2,0.4-0.4,0.8-0.6,1.2c-0.5,1-0.9,2-1.3,3.1c-0.4,0.9-0.8,1.8-1.2,2.7c-0.2,0.3-0.3,0.6-0.4,0.9
					c0,0.1,0,0.1,0,0.2c-1.3,3.1-2.4,6.2-3.4,9.3c-0.8-2.2-1.4-4.4-2.1-6.6c-0.4-1.5-0.9-3-1.3-4.5c-0.4-1.5-0.8-3.1-1.1-4.7
					c-0.4-1.8-0.8-3.5-1.2-5.3c-0.4-1.8-0.7-3.5-1-5.3c-0.3-1.8-0.6-3.6-0.8-5.4c-0.2-1.5-0.4-3-0.5-4.5c-0.1-0.5-0.1-1-0.2-1.6
					c-0.2-1.5-0.3-3.1-0.4-4.7c0,0,0,0,0-0.1c-0.2-1.6-0.2-3.2-0.3-4.9c-0.1-2.3-0.2-4.4-0.2-6.7c0-3.2,0.1-6.4,0.3-9.6
					c2.2-39.7,18.5-78.9,48.8-109.1L184.8,75.1c0.1-0.1,0.2-0.2,0.2-0.2l118.7,118.7c8.9,8.9,16.6,18.5,23,28.7
					c0,0.1,0.1,0.1,0.1,0.2c15.6,24.5,24.3,52.2,25.8,80.2C352.8,307.2,352.9,311.7,352.7,316.3z"/>
				<path class="st0" d="M301.3,433.3c-32.4,31.3-74.4,46.9-116.3,46.9c-32.3,0-64.6-9.3-92.6-27.9c-0.2-0.1-0.4-0.2-0.5-0.3
					c-8.2-5.4-16-11.7-23.3-18.8l4.6-4.6L185,316.9l112.4,112.4v0l0.4,0.4L301.3,433.3z"/>
				<path class="st7" d="M343.9,366.4c-5.4,16.2-13.5,31.8-24,46c-1,1.3-2,2.6-3.1,3.9c-1,1.3-2,2.5-3.1,3.8
					c-2.1,2.5-4.3,4.9-6.6,7.4c-1.1,1.2-2.2,2.4-3.5,3.6c-0.7,0.8-1.5,1.5-2.3,2.2h0l-3.5-3.5l-0.4-0.4v0L185,316.9L73.1,428.7
					l-4.6,4.6c-0.8-0.7-1.7-1.5-2.4-2.2c-5.9-5.9-11.3-12.1-16.1-18.7c-10.6-14.3-18.6-29.8-24-46c1-3.1,2.1-6.2,3.4-9.3
					c0,0,0-0.1,0-0.2c0.2-0.3,0.3-0.6,0.4-0.9c0.3-0.9,0.7-1.8,1.2-2.7c0.9-2,1.8-4.1,2.8-6.1c0.8-1.7,1.7-3.4,2.5-5
					c1.3-2.4,2.6-4.8,4-7.2c1.3-2.3,2.7-4.5,4.2-6.7c0.1-0.1,0.2-0.3,0.3-0.4c1.3-2,2.7-4.1,4.2-6.1c0.3-0.5,0.7-0.9,1-1.4
					c1.5-2,3-3.9,4.6-5.9c0.1-0.1,0.1-0.1,0.1-0.1c1.5-1.8,3-3.6,4.6-5.4c2.2-2.4,4.4-4.8,6.8-7.2L185,183l118.7,118.7
					c5.5,5.5,10.6,11.4,15.3,17.5c7.4,9.7,13.6,20.1,18.6,30.9c0.2,0.2,0.3,0.5,0.3,0.8c0.1,0.2,0.2,0.3,0.3,0.5v0
					c0.3,0.5,0.5,1.2,0.8,1.8c0.7,1.4,1.3,2.8,1.8,4.3c0.2,0.4,0.4,0.8,0.5,1.3v0c0.4,1,0.8,2,1.2,3.1
					C342.9,363.4,343.4,364.9,343.9,366.4z"/>
				<path class="st8" d="M185,316.9L68.6,433.3c-0.8-0.7-1.6-1.5-2.4-2.2c-5.9-5.9-11.3-12.1-16.1-18.7L185,316.9z"/>
				<path class="st8" d="M185,183L66.2,301.7c-2.4,2.4-4.6,4.8-6.8,7.2c-1.3,1.5-2.5,2.9-3.7,4.4c-0.4,0.5-0.8,1-1.3,1.5
					c-1.5,1.8-2.9,3.7-4.3,5.5c-0.4,0.5-0.8,1-1.1,1.6c-0.7,0.9-1.4,1.9-2.1,2.9c-0.6,0.8-1,1.5-1.5,2.3c-0.3,0.4-0.6,0.7-0.8,1.1
					c-1.4,2.2-2.9,4.4-4.2,6.7c-0.7,1-1.3,2.1-1.9,3.2c-0.1,0.2-0.2,0.4-0.4,0.6c-0.6,1.1-1.2,2.3-1.8,3.3c-0.8,1.4-1.5,2.9-2.2,4.3
					c-0.1,0.2-0.3,0.5-0.3,0.8c-0.2,0.4-0.4,0.8-0.5,1.2c-0.2,0.2-0.2,0.4-0.3,0.7c-0.7,1.4-1.3,2.9-1.9,4.3
					c-0.4,0.9-0.8,1.8-1.2,2.7c-1.4,3.5-2.7,6.9-3.9,10.4c-0.8-2.2-1.4-4.4-2.1-6.6c-0.4-1.5-0.9-3-1.3-4.5
					c-0.4-1.5-0.8-3.1-1.1-4.7c-0.4-1.8-0.8-3.5-1.2-5.3c-0.4-1.8-0.7-3.5-1-5.3c-0.3-1.8-0.6-3.6-0.8-5.4c-0.2-1.5-0.4-3-0.5-4.5
					c-0.1-0.5-0.1-1-0.2-1.6c-0.2-1.5-0.3-3.1-0.4-4.7c0,0,0,0,0-0.1c-0.2-1.6-0.2-3.2-0.3-4.9c-0.1-2.3-0.2-4.4-0.2-6.7
					c0-3.2,0.1-6.4,0.3-9.6l1.8-1.3l142-101.4L185,183z"/>
				<path class="st8" d="M319.8,412.4c-1,1.3-2,2.6-3.1,3.9c-1,1.3-2,2.5-3.1,3.8c-2.1,2.5-4.3,4.9-6.6,7.4
					c-1.1,1.2-2.2,2.4-3.4,3.6h-0.1c-0.7,0.8-1.5,1.5-2.3,2.2h0l-3.8-3.9c0,0-0.1,0-0.1,0c0-0.1-0.2-0.2-0.3-0.3L185,316.9l22.7,16
					l107.8,76.3L319.8,412.4z"/>
				<path class="st8" d="M348.5,350.2c-0.7,3.2-1.6,6.4-2.5,9.6c-0.7,2.2-1.3,4.4-2.1,6.6c-0.5-1.5-1-3-1.5-4.4
					c-0.4-1-0.8-2.1-1.2-3.1c-0.1-0.4-0.3-0.9-0.5-1.3c-0.5-1.5-1.1-2.9-1.8-4.3c-0.2-0.6-0.5-1.2-0.8-1.8c-0.1-0.2-0.2-0.4-0.3-0.5
					c-0.1-0.3-0.2-0.5-0.3-0.8c-4.9-10.8-11.1-21.2-18.6-30.9c-4.6-6.1-9.7-12-15.2-17.5h-0.1L185,183l23.5,16.8L348.8,300l3.7,2.6
					l0.1,0.1c0.2,3.2,0.3,6.4,0.3,9.6c0,1.3-0.1,2.6-0.1,3.9c0,0.9-0.1,1.8-0.1,2.8c-0.1,3.2-0.3,6.3-0.7,9.5
					c-0.1,1.6-0.3,3.1-0.5,4.7c-0.2,1.6-0.4,3.3-0.7,4.9c-0.4,2.8-1,5.6-1.5,8.4C349,347.7,348.7,349,348.5,350.2z"/>
				<path class="st9" d="M297.8,429.8L185,316.9L73.2,428.7c8.5-10.1,17.5-19.7,26.3-29.6c8.9-9.7,17.9-19.4,26.9-28.9
					c9-9.6,18.2-19.1,27.4-28.5l27.8-28.1l3.4-3.5l3.4,3.5l28,28.4c9.2,9.6,18.5,19.1,27.7,28.8c9.1,9.6,18.2,19.4,27.2,29.2
					C280.1,409.8,289.1,419.6,297.8,429.8z"/>
				<path class="st9" d="M338,351.4c-8.2-18-19.6-34.9-34.4-49.7L185,183L66.2,301.7c-16.3,16.3-28.5,35.1-36.7,55.2
					c6.3-18.5,16.6-35.7,29.3-50.9c3.2-3.8,6.7-7.3,10-10.9l10-10.7l20.4-21.2c27.1-28.2,54.6-56,82.2-83.7l3.4-3.4l3.4,3.4
					l40.2,40.6c13.3,13.7,26.7,27.2,39.8,41l19.8,20.6l9.8,10.4c3.2,3.5,6.6,6.9,9.8,10.4C320.7,317.2,331.2,333.5,338,351.4z"/>
				<path class="st10" d="M297.8,429.8c-10.2-8.7-20-17.7-29.9-26.5c-9.8-9-19.6-18.1-29.2-27.2c-9.7-9.1-19.2-18.4-28.8-27.7
					l-25-24.6l-24.7,24.4c-9.5,9.1-18.9,18.4-28.5,27.3c-9.6,9.1-19.2,18-29,27c-9.9,8.7-19.5,17.7-29.6,26.2L185,316.9L297.8,429.8
					z"/>
				<path class="st10" d="M338,351.4c-8.8-16.9-20-32.4-33.5-45.5c-13.8-13.1-27.7-26.2-41.4-39.4c-13.8-13.2-27.3-26.6-41-39.9
					L185,189.8c-26.6,26.5-53.3,52.9-80.3,78.9L83.5,289c-7.1,6.7-14.4,13.4-21.1,20.2c-13.5,13.7-24.5,30-32.8,47.6
					c8.2-20,20.4-38.9,36.7-55.2L185,183l118.7,118.8C318.5,316.5,329.9,333.4,338,351.4z"/>
				<path class="st11" d="M184.8,75.1c-1.4,1.8-13.5,16.2-32,36.4c-9.8,10.9-21.5,23.3-34.1,36.5c-6.4,6.5-12.8,13.4-19.5,20.2
					c-6.7,6.8-13.6,13.8-20.4,20.7c-3.4,3.4-7.1,6.9-10.3,10.2c-3.5,3.5-6.5,6.9-9.4,10.4c-5.9,7.1-11.3,14.5-15.8,22.2
					c-9.1,15.2-15.2,30.8-19,44.6c-2,6.9-3.1,13.4-4.2,19.2c-0.3,2.1-0.6,4.1-0.8,5.9c-0.4,3.4-0.8,6.5-1,9.2
					c-0.3,4.1-0.4,7.6-0.6,9.8c-0.1,2-0.2,3.2-0.2,3.5c-0.2-1.6-0.2-3.2-0.3-4.9c-0.1-2.3-0.2-4.4-0.2-6.7c0-3.2,0.1-6.4,0.3-9.6
					c2.2-39.7,18.5-78.9,48.8-109.1L184.8,75.1z"/>
				<path class="st12" d="M348.5,350.2c-0.7,3.2-1.6,6.4-2.5,9.6c-0.7,2.2-1.3,4.4-2.1,6.6c-5.4,16.2-13.5,31.8-24,46
					c-1,1.3-2,2.6-3.1,3.9c-1,1.3-2,2.5-3.1,3.8c-2.1,2.5-4.3,4.9-6.6,7.4c-1.1,1.2-2.2,2.4-3.4,3.6h-0.1c-0.7,0.8-1.5,1.5-2.3,2.2
					h0c-32.4,31.3-74.4,46.9-116.3,46.9c-32.3,0-64.6-9.3-92.6-27.9c0.7,0.4,1.9,1,3.3,1.9c3,1.6,7.3,3.8,13,6.5
					c11.3,5.2,28.2,11.3,49.2,14.1c10.5,1.4,21.8,1.9,34,1.2c11.9-0.7,24.5-3,37-6.6c12.6-3.6,24.9-9.2,36.8-15.9
					c11.4-6.7,21.9-14.6,31.7-24.1c0,0,0,0.1,0,0v0c0,0,0.1,0,0.1,0c0.4-0.3,0.7-0.7,1.1-1c6-5.8,11.7-12.2,16.8-19
					c3.2-4.2,6.1-8.6,8.8-13.1c7-11.7,12.8-23.9,16.7-36.5c0.1-0.3,0.2-0.5,0.2-0.8h0.1v0c3.7-12.2,6.1-24.3,7.1-36
					c0.7-7.9,0.8-15.5,0.5-22.8c-0.2-3.8-0.5-7.5-0.9-11.1c-1.2-10.5-3.1-20-5.4-28.4c-2.2-8.3-5.1-15.4-7.5-21.1
					c-2.6-5.7-4.6-10.2-6.3-13.1c-1-1.9-1.7-3.2-2.1-3.9c15.6,24.5,24.3,52.2,25.8,80.2l0.1,0.1c0.2,3.2,0.3,6.4,0.3,9.6
					c0,1.3-0.1,2.6-0.1,3.9c0,0.9-0.1,1.8-0.1,2.8c-0.1,3.2-0.3,6.3-0.7,9.5c-0.1,1.6-0.3,3.1-0.5,4.7c-0.2,1.6-0.4,3.3-0.7,4.9
					c-0.4,2.8-1,5.6-1.5,8.4C349,347.7,348.7,349,348.5,350.2z"/>
			</g>
		</g>
	</g>
</g>
</svg>
