<svg xmlns="http://www.w3.org/2000/svg" viewBox="0 0 1090.34 343.44"><defs><style>.cls-1{font-size:40px;fill:#fff;font-family:MyriadPro-Regular, Myriad Pro;}.cls-2{letter-spacing:0.14em;}.cls-3,.cls-4,.cls-5,.cls-6{font-family:MyriadPro-Bold, Myriad Pro;font-weight:700;}.cls-3{letter-spacing:-0.08em;}.cls-5{letter-spacing:0.01em;}.cls-6{letter-spacing:-0.02em;}.cls-7{letter-spacing:-0.01em;}.cls-8{letter-spacing:0.14em;}.cls-9{letter-spacing:-0.01em;}.cls-10{letter-spacing:0em;}.cls-11{letter-spacing:0em;}.cls-12{letter-spacing:-0.01em;}.cls-13{letter-spacing:0em;}.cls-14{letter-spacing:0em;}.cls-15{letter-spacing:0em;}.cls-16{letter-spacing:-0.07em;}.cls-17{letter-spacing:0.06em;}.cls-18{letter-spacing:-0.01em;}.cls-19{letter-spacing:0em;}.cls-20{letter-spacing:0em;}.cls-21{letter-spacing:-0.02em;}.cls-22{letter-spacing:-0.04em;}.cls-23{letter-spacing:0.16em;}.cls-24{letter-spacing:0em;}.cls-25{letter-spacing:0.16em;}.cls-26{letter-spacing:0em;}.cls-27{letter-spacing:-0.02em;}.cls-28{letter-spacing:0.38em;}.cls-29{letter-spacing:0.38em;}.cls-30{letter-spacing:-0.01em;}.cls-31{letter-spacing:-0.01em;}</style></defs><g id="Layer_2" data-name="Layer 2"><g id="Camada_1" data-name="Camada 1"><text class="cls-1" transform="translate(0 33.84)">*<tspan class="cls-2" x="16.6" y="0"> </tspan><tspan class="cls-3" x="30.62" y="0">A</tspan><tspan class="cls-4" x="53.54" y="0">TEN</tspan><tspan class="cls-5" x="124.42" y="0">Ç</tspan><tspan class="cls-6" x="148.62" y="0">Ã</tspan><tspan class="cls-4" x="173.86" y="0">O</tspan><tspan x="202.54" y="0">:</tspan><tspan class="cls-2" x="210.82" y="0"> </tspan><tspan class="cls-7" x="224.84" y="0">A</tspan><tspan x="249.08" y="0">s</tspan><tspan class="cls-8" x="264.92" y="0"> </tspan><tspan x="278.95" y="0">p</tspan><tspan class="cls-9" x="301.71" y="0">r</tspan><tspan x="314.39" y="0">estado</tspan><tspan class="cls-10" x="427.31" y="0">r</tspan><tspan x="440.19" y="0">as</tspan><tspan class="cls-2" x="475.31" y="0"> </tspan><tspan x="489.33" y="0">não</tspan><tspan class="cls-2" x="552.77" y="0"> </tspan><tspan class="cls-9" x="566.79" y="0">r</tspan><tspan class="cls-11" x="579.47" y="0">e</tspan><tspan class="cls-12" x="599.51" y="0">c</tspan><tspan x="617.19" y="0">ebem</tspan><tspan class="cls-2" x="713.39" y="0"> </tspan><tspan x="727.41" y="0">nenhum</tspan><tspan class="cls-8" x="869.45" y="0"> </tspan><tspan x="883.48" y="0">dinhei</tspan><tspan class="cls-9" x="989.19" y="0">r</tspan><tspan x="1001.87" y="0">o</tspan><tspan class="cls-2" x="1023.83" y="0"> </tspan><tspan x="1037.86" y="0">ou </tspan><tspan x="0" y="48">pagame</tspan><tspan class="cls-13" x="137.08" y="48">n</tspan><tspan class="cls-7" x="159.12" y="48">t</tspan><tspan x="172.12" y="48">o de clie</tspan><tspan class="cls-14" x="310.4" y="48">n</tspan><tspan class="cls-12" x="332.44" y="48">t</tspan><tspan class="cls-11" x="345.43" y="48">e em mãos;</tspan><tspan x="0" y="96">*</tspan><tspan class="cls-15" x="16.6" y="96"> </tspan><tspan class="cls-16" x="25.22" y="96">T</tspan><tspan x="42.26" y="96">odos</tspan><tspan class="cls-17" x="124.58" y="96"> </tspan><tspan x="135.26" y="96">os</tspan><tspan class="cls-17" x="173.06" y="96"> </tspan><tspan x="183.75" y="96">pagame</tspan><tspan class="cls-14" x="320.83" y="96">n</tspan><tspan class="cls-12" x="342.87" y="96">t</tspan><tspan x="355.87" y="96">os</tspan><tspan class="cls-17" x="393.67" y="96"> </tspan><tspan x="404.35" y="96">são</tspan><tspan class="cls-17" x="461.43" y="96"> </tspan><tspan class="cls-18" x="472.12" y="96">f</tspan><tspan x="483.28" y="96">ei</tspan><tspan class="cls-7" x="512.68" y="96">t</tspan><tspan x="525.68" y="96">os</tspan><tspan class="cls-17" x="563.48" y="96"> </tspan><tspan class="cls-19" x="574.16" y="96">via</tspan><tspan class="cls-17" x="622.04" y="96"> </tspan><tspan class="cls-11" x="632.73" y="96">bole</tspan><tspan class="cls-12" x="706.93" y="96">t</tspan><tspan x="719.93" y="96">o</tspan><tspan class="cls-17" x="741.89" y="96"> </tspan><tspan x="752.57" y="96">bancá</tspan><tspan class="cls-20" x="854.01" y="96">r</tspan><tspan x="867.25" y="96">i</tspan><tspan class="cls-21" x="876.61" y="96">o</tspan><tspan x="897.61" y="96">,</tspan><tspan class="cls-17" x="905.89" y="96"> </tspan><tspan x="916.57" y="96">que</tspan><tspan class="cls-17" x="981.17" y="96"> </tspan><tspan x="991.86" y="96">se</tspan><tspan class="cls-10" x="1027.74" y="96">r</tspan><tspan x="1040.62" y="96">ão </tspan><tspan x="0" y="144">e</tspan><tspan class="cls-18" x="20.04" y="144">n</tspan><tspan x="41.72" y="144">viados via</tspan><tspan class="cls-22" x="206.32" y="144"> </tspan><tspan class="cls-10" x="213.36" y="144">W</tspan><tspan x="247" y="144">h</tspan><tspan class="cls-13" x="269.2" y="144">a</tspan><tspan x="288.32" y="144">tsapp;</tspan><tspan x="0" y="192">*</tspan><tspan class="cls-23" x="16.6" y="192"> </tspan><tspan x="31.33" y="192">Não</tspan><tspan class="cls-23" x="98.89" y="192"> </tspan><tspan x="113.61" y="192">au</tspan><tspan class="cls-7" x="154.93" y="192">t</tspan><tspan x="167.93" y="192">o</tspan><tspan class="cls-24" x="189.89" y="192">r</tspan><tspan x="203.13" y="192">izamos</tspan><tspan class="cls-23" x="320.05" y="192"> </tspan><tspan x="334.78" y="192">nossas</tspan><tspan class="cls-25" x="445.74" y="192"> </tspan><tspan x="460.47" y="192">dia</tspan><tspan class="cls-20" x="511.66" y="192">r</tspan><tspan x="524.9" y="192">istas</tspan><tspan class="cls-23" x="598.46" y="192"> </tspan><tspan x="613.19" y="192">a</tspan><tspan class="cls-23" x="632.47" y="192"> </tspan><tspan x="647.2" y="192">m</tspan><tspan class="cls-26" x="680.56" y="192">e</tspan><tspan class="cls-27" x="700.48" y="192">x</tspan><tspan x="718.4" y="192">er</tspan><tspan class="cls-23" x="751.52" y="192"> </tspan><tspan x="766.25" y="192">em</tspan><tspan class="cls-23" x="819.65" y="192"> </tspan><tspan x="834.37" y="192">gua</tspan><tspan class="cls-9" x="898.05" y="192">r</tspan><tspan x="910.73" y="192">da</tspan><tspan class="cls-23" x="952.57" y="192"> </tspan><tspan class="cls-9" x="967.3" y="192">r</tspan><tspan x="979.98" y="192">oupas </tspan><tspan x="0" y="240">sem</tspan><tspan class="cls-28" x="69.24" y="240"> </tspan><tspan x="92.84" y="240">a</tspan><tspan class="cls-28" x="112.12" y="240"> </tspan><tspan x="135.72" y="240">pe</tspan><tspan class="cls-20" x="178.52" y="240">r</tspan><tspan class="cls-19" x="191.75" y="240">missão</tspan><tspan class="cls-28" x="307.39" y="240"> </tspan><tspan class="cls-11" x="330.99" y="240">e</tspan><tspan class="cls-28" x="351.03" y="240"> </tspan><tspan class="cls-19" x="374.63" y="240">a</tspan><tspan class="cls-28" x="393.91" y="240"> </tspan><tspan class="cls-11" x="417.51" y="240">p</tspan><tspan class="cls-9" x="440.27" y="240">r</tspan><tspan x="452.95" y="240">esença</tspan><tspan class="cls-29" x="568.27" y="240"> </tspan><tspan x="591.87" y="240">de</tspan><tspan class="cls-28" x="634.46" y="240"> </tspan><tspan x="658.06" y="240">algum</tspan><tspan class="cls-28" x="764.54" y="240"> </tspan><tspan class="cls-9" x="788.14" y="240">r</tspan><tspan x="800.82" y="240">espons</tspan><tspan class="cls-30" x="919.46" y="240">á</tspan><tspan class="cls-9" x="938.42" y="240">v</tspan><tspan x="957.26" y="240">el</tspan><tspan class="cls-28" x="986.74" y="240"> </tspan><tspan x="1010.34" y="240">pela </tspan><tspan class="cls-9" x="0" y="288">r</tspan><tspan x="12.68" y="288">esidência/emp</tspan><tspan class="cls-9" x="259.16" y="288">r</tspan><tspan class="cls-11" x="271.84" y="288" xml:space="preserve">esa  maior de 18 ano</tspan><tspan class="cls-31" x="613.51" y="288">s</tspan><tspan x="628.91" y="288">.</tspan></text></g></g></svg>