<svg xmlns="http://www.w3.org/2000/svg" xmlns:xlink="http://www.w3.org/1999/xlink" viewBox="0 0 94.43 94.43"><defs><style>.cls-1{fill:none;clip-rule:evenodd;}.cls-2{clip-path:url(#clip-path);}.cls-3{fill:#fff;}</style><clipPath id="clip-path"><path class="cls-1" d="M67.87,27.74H26.55a4,4,0,0,0-3.32,1.46,5.64,5.64,0,0,0-1.17,3.65,6.54,6.54,0,0,0,1.55,3.83,13.73,13.73,0,0,0,3.28,3.24l5.75,4,4.53,3.15,2.83,2,.42.3.77.55c.61.44,1.12.8,1.52,1.07s.89.58,1.46.91a8.53,8.53,0,0,0,1.61.76,4.47,4.47,0,0,0,1.41.25h.05a4.47,4.47,0,0,0,1.41-.25,8.53,8.53,0,0,0,1.61-.76c.57-.33,1.06-.64,1.46-.91s.91-.63,1.52-1.07l.77-.55.42-.3,2.84-2,10.3-7.15A13.35,13.35,0,0,0,71,36.47a7.41,7.41,0,0,0,1.38-4.24,4.54,4.54,0,0,0-4.5-4.49M69,42.35Q63.25,46.24,59.23,49L71.79,61.59V39.91A15.9,15.9,0,0,1,69,42.35Zm-43.5,0a14.91,14.91,0,0,1-2.84-2.44V61.59L35.2,49Q31.43,46.39,25.48,42.35ZM67.87,66.69a4.35,4.35,0,0,0,2.95-1.11L56.57,51.32l-1,.71c-1.07.79-1.93,1.4-2.6,1.84a16.08,16.08,0,0,1-2.65,1.35,8.08,8.08,0,0,1-3.09.69h-.05a8,8,0,0,1-3.09-.69,16.23,16.23,0,0,1-2.66-1.35c-.66-.44-1.52-1-2.59-1.84l-1-.71L23.61,65.58a4.32,4.32,0,0,0,2.94,1.11ZM94.43,47.21A47.22,47.22,0,1,1,47.21,0,47.22,47.22,0,0,1,94.43,47.21Z"/></clipPath></defs><g id="Layer_2" data-name="Layer 2"><g id="Camada_1" data-name="Camada 1"><g class="cls-2"><rect class="cls-3" width="94.43" height="94.43"/></g></g></g></svg>