<svg xmlns="http://www.w3.org/2000/svg" xmlns:xlink="http://www.w3.org/1999/xlink" viewBox="0 0 96 96"><defs><style>.cls-1{fill:none;clip-rule:evenodd;}.cls-2{clip-path:url(#clip-path);}.cls-3{fill:#fff;}</style><clipPath id="clip-path"><path class="cls-1" d="M48,0A48,48,0,1,1,0,48,48,48,0,0,1,48,0Z"/></clipPath></defs><g id="Layer_2" data-name="Layer 2"><g id="Camada_1" data-name="Camada 1"><g class="cls-2"><path class="cls-3" d="M48.09,59.08a11,11,0,1,0-11-11A11,11,0,0,0,48.09,59.08Z"/><path class="cls-3" d="M60.67,36.62H68.8c.93,0,1.22-1.22,1.22-1.22v-8c0-1.28-1.43-1.43-1.43-1.43H60.82c-1.43,0-1.58,1.58-1.58,1.58v7.62A1.48,1.48,0,0,0,60.67,36.62Z"/><path class="cls-3" d="M61.22,59.27c-4.5,5.73-12.83,6.08-12.83,6.08a17.94,17.94,0,0,1-11.47-4.1c-8.67-7.14-5.57-17.8-5.57-17.8H25.91s-.06,23.67-.06,25,1.6,1.6,1.6,1.6h41c1.57,0,1.68-1.67,1.68-1.67v-25H64.87A19.47,19.47,0,0,1,61.22,59.27Z"/><path class="cls-3" d="M0,0V96H96V0ZM76,68.61a8,8,0,0,1-7.78,8.22H27.83a8,8,0,0,1-7.78-8.22V27.39a8,8,0,0,1,7.78-8.22H68.17A8,8,0,0,1,76,27.39Z"/></g></g></g></svg>