<svg xmlns="http://www.w3.org/2000/svg" xmlns:xlink="http://www.w3.org/1999/xlink" viewBox="0 0 96 96"><defs><style>.cls-1{fill:none;clip-rule:evenodd;}.cls-2{clip-path:url(#clip-path);}.cls-3{fill:#fff;}</style><clipPath id="clip-path"><path class="cls-1" d="M37.84,33.84c-1.56.49-3,2.55-3.54,4.36A9.48,9.48,0,0,0,35,44.89,35.37,35.37,0,0,0,41.74,54a28.24,28.24,0,0,0,4.38,3.5A24.9,24.9,0,0,0,51.59,60c1.82.69,4.28,1.57,6.41,1.07,1.82-.43,4-1.41,4.92-3a7.31,7.31,0,0,0,.76-3.15c0-.81-.15-.91-.74-1.22S62,53.17,61.59,53c-1-.45-4.74-2.58-5.57-2.14-1.1.58-2.45,4.21-4.12,3.58a19.5,19.5,0,0,1-9-6.89c-2.28-3.16-1.56-2.35.31-4.86a2.16,2.16,0,0,0,.3-2.79c-.42-1-.75-1.8-1.18-2.82a16.3,16.3,0,0,0-1.24-2.74c-.37-.51-.59-.54-1.35-.54a6.6,6.6,0,0,0-1.9.07M25.06,71.12a21.27,21.27,0,0,0,2.54-.76l6.31-2c.68-.22.65-.3,1.21,0A25.39,25.39,0,0,0,44.81,72a25.14,25.14,0,0,0,23.4-9.23,24.54,24.54,0,0,0,5.43-14.55A24.83,24.83,0,0,0,71.47,37a25.55,25.55,0,0,0-9.2-10.65,26,26,0,0,0-4.38-2.3,25.27,25.27,0,0,0-33.5,16A25.24,25.24,0,0,0,24,53.16c.1.38.27.77.39,1.23a23.34,23.34,0,0,0,3.23,6.81c.61.88.47.75-.09,2.36C27.2,64.61,25.12,70.54,25.06,71.12ZM78,42.4a29.36,29.36,0,0,0-8.35-16.12A30,30,0,0,0,56.27,18.6a29.09,29.09,0,0,0-4.47-.82l-1.28-.12-.08,0-.14-.06h-4c-.19.12-2.36.39-2.66.44a25.2,25.2,0,0,0-2.56.51,29.32,29.32,0,0,0-8.56,3.69A26.56,26.56,0,0,0,29,24.82a29.66,29.66,0,0,0-9.43,15A30.23,30.23,0,0,0,20,56.08a32.06,32.06,0,0,0,1.75,4.37c1,2.42,1.59,1.23.45,4.29-.59,1.59-1,3.13-1.55,4.59s-1.08,3.08-1.56,4.55c-.26.82-1.42,4-1.49,4.54L22.27,77c1.51-.5,3-1,4.55-1.47s3.07-1,4.65-1.47c3.3-1,2-1,4.32.07a30.62,30.62,0,0,0,20.63,1.77A30,30,0,0,0,76,59,28.45,28.45,0,0,0,78,42.4ZM48,0A48,48,0,1,1,0,48,48,48,0,0,1,48,0Z"/></clipPath></defs><g id="Layer_2" data-name="Layer 2"><g id="Camada_1" data-name="Camada 1"><g class="cls-2"><rect class="cls-3" width="96" height="96"/></g></g></g></svg>