<svg xmlns="http://www.w3.org/2000/svg" viewBox="0 0 989.43 1138.4"><defs><style>.cls-1{font-size:61.05px;font-family:Montserrat-Regular, Montserrat;}.cls-1,.cls-5{fill:#fff;}.cls-2{letter-spacing:-0.02em;}.cls-3{letter-spacing:-0.02em;}.cls-4{fill:none;stroke:#fff;stroke-miterlimit:10;stroke-width:3px;}.cls-6{fill:#cfa7da;}.cls-7{letter-spacing:0em;}.cls-8{letter-spacing:-0.01em;}.cls-9{letter-spacing:0em;}.cls-10{letter-spacing:-0.01em;}.cls-11{letter-spacing:-0.01em;}.cls-12{letter-spacing:0em;}</style></defs><g id="Layer_2" data-name="Layer 2"><g id="Camada_1" data-name="Camada 1"><text class="cls-1" transform="translate(528.94 464.85)"><tspan class="cls-2">C</tspan><tspan x="42.98" y="0">ONFIAN</tspan><tspan class="cls-3" x="294.34" y="0">Ç</tspan><tspan x="337.13" y="0">A</tspan></text><circle class="cls-4" cx="715.79" cy="183.57" r="182.07" transform="translate(79.85 559.91) rotate(-45)"/><circle class="cls-5" cx="715.79" cy="183.57" r="164.2" transform="translate(79.85 559.91) rotate(-45)"/><path class="cls-6" d="M835.06,131.38,784.48,80.81a17,17,0,0,0-24,0L748.63,92.7a16.69,16.69,0,0,0-4,6.26L689.07,89h0A46.39,46.39,0,0,0,634.6,125.3L632,138a26,26,0,0,0,51,10.27l1.57-7.78,24.94,2.18,65.12,65.12,11.8,11.8a6.13,6.13,0,1,1-8.67,8.67l-31.61-31.61a5.64,5.64,0,0,0-8,8l31.62,31.62a6.14,6.14,0,0,1,0,8.67,6.15,6.15,0,0,1-8.67,0L729.5,213.32a5.64,5.64,0,0,0-8,8l31.62,31.62a6.13,6.13,0,0,1-8.67,8.67L712.85,230a5.64,5.64,0,1,0-8,8l31.61,31.61a6.13,6.13,0,1,1-8.66,8.67L616,166.36l-14.77-14.77a5.64,5.64,0,1,0-8,8L608,174.33l16.08,16.08-8.87,8.86a15.37,15.37,0,0,0,0,21.73l2.9,2.89a15.16,15.16,0,0,0,9.32,4.42,15.22,15.22,0,0,0,4.43,9.33l2.89,2.89a15.26,15.26,0,0,0,9.33,4.42,15.23,15.23,0,0,0,4.42,9.34l2.89,2.89a15.26,15.26,0,0,0,9.33,4.42,15.29,15.29,0,0,0,4.42,9.33l2.9,2.89a15.38,15.38,0,0,0,21.72,0l8.87-8.86,21.23,21.24a17.38,17.38,0,0,0,29.68-11.58A17.34,17.34,0,0,0,766.17,258a17.32,17.32,0,0,0,16.64-16.65,17.37,17.37,0,0,0,11.59-29.67l-7.82-7.82,28.6-28.59,19.88-19.88a17,17,0,0,0,0-24ZM623.18,213a4.07,4.07,0,0,1,0-5.77l8.31-8.31,8.67,8.67-8.31,8.31a4.1,4.1,0,0,1-5.78,0Zm16.64,16.65a4.1,4.1,0,0,1,0-5.78l8.31-8.31,8.67,8.67-8.31,8.31a4.09,4.09,0,0,1-5.77,0Zm16.64,16.64a4.1,4.1,0,0,1,0-5.78l8.31-8.3,8.67,8.66-8.31,8.31a4.09,4.09,0,0,1-5.77,0l-2.9-2.89Zm25.32,19.54a4.1,4.1,0,0,1-5.78,0L673.11,263a4.08,4.08,0,0,1,0-5.78l8.31-8.31,8.67,8.67Zm96.83-70L716,133.27a5.7,5.7,0,0,0-3.49-1.63l-32-2.79-.49,0a5.66,5.66,0,0,0-5.53,4.53l-2.56,12.72a14.71,14.71,0,0,1-26.68,5.24,14.59,14.59,0,0,1-2.17-11.05l2.56-12.73A35.11,35.11,0,0,1,687,100.09l.12,0,54.8,9.81,6.75,6.75,54.58,54.58Zm48.47-48.48-15.89,15.9L756.6,108.69a5.67,5.67,0,0,1,0-8l11.88-11.89a5.69,5.69,0,0,1,8,0l50.57,50.58a5.67,5.67,0,0,1,0,8Z"/><path class="cls-6" d="M813.43,140a5.64,5.64,0,1,1-5.64,5.64A5.64,5.64,0,0,1,813.43,140Z"/><text class="cls-1" transform="translate(0 1122.41)">S<tspan class="cls-7" x="37.55" y="0">E</tspan><tspan x="78.15" y="0">GURAN</tspan><tspan class="cls-3" x="311.25" y="0">Ç</tspan><tspan x="354.05" y="0">A</tspan></text><path class="cls-4" d="M380.08,841.12A182.07,182.07,0,1,0,198,1023.19,182.08,182.08,0,0,0,380.08,841.12Z"/><circle class="cls-5" cx="197.63" cy="841.12" r="164.2"/><path class="cls-6" d="M285,790.56c-.11-5.63-.21-10.94-.21-16.09a7.29,7.29,0,0,0-7.3-7.29c-31.2,0-55-9-74.77-28.23a7.28,7.28,0,0,0-10.17,0c-19.81,19.26-43.56,28.23-74.77,28.23a7.29,7.29,0,0,0-7.3,7.29c0,5.15-.1,10.47-.21,16.1-1,52.38-2.37,124.11,85,154.39a7.31,7.31,0,0,0,2.39.4A7.22,7.22,0,0,0,200,945C287.36,914.68,286,842.94,285,790.56ZM197.63,930.32c-74.91-27.21-73.78-86.82-72.77-139.48.06-3.15.12-6.22.15-9.22,29.23-1.23,52.61-10.09,72.62-27.52,20,17.43,43.38,26.29,72.61,27.52,0,3,.1,6.06.16,9.22C271.4,843.5,272.53,903.11,197.63,930.32Z"/><path class="cls-6" d="M222.75,815.77,187.53,851l-15-15a7.29,7.29,0,0,0-10.31,10.32l20.18,20.19a7.29,7.29,0,0,0,10.32,0l40.38-40.38a7.3,7.3,0,0,0-10.32-10.32Z"/><text class="cls-1" transform="translate(21.17 465.18)"><tspan class="cls-2">C</tspan><tspan x="42.98" y="0">ON</tspan><tspan class="cls-8" x="143.84" y="0">F</tspan><tspan class="cls-9" x="181.94" y="0">O</tspan><tspan class="cls-10" x="233.16" y="0">RT</tspan><tspan class="cls-9" x="311.13" y="0">O</tspan></text><circle class="cls-4" cx="196.37" cy="183.89" r="182.07" transform="translate(-72.52 192.71) rotate(-45)"/><circle class="cls-5" cx="196.37" cy="183.89" r="164.2"/><path class="cls-6" d="M361.49,159.81,216.76,286.35c-9.06,7.92-18.14,11.66-26.95,11.1-12.89-.81-21.42-10.61-21.49-10.7L31.48,157.52l-6,4.87,136.42,128.8c1.4,1.59,11.49,12.37,27.25,13.4.81.05,1.62.08,2.43.08,10.5,0,20.91-4.45,31-13.25L367.27,164.87Z"/><path class="cls-6" d="M274.38,109.48a25.91,25.91,0,1,1-25.91,25.91A25.92,25.92,0,0,1,274.38,109.48Z"/><path class="cls-6" d="M175.17,265.57a27.12,27.12,0,0,0,8.11,7,12,12,0,0,0,3.3,1.59,23.06,23.06,0,0,0,24.29-4.26q34.6-29.93,69.18-59.86a25.24,25.24,0,0,0,3.18-3.32l47-42c11.91-10.65-5.63-28.05-17.47-17.47L278.8,177.61c-8.37-7-21.17-9.23-31.68-.14l-21,18.18q-3.06-10.26-5.41-20.76l2.59-1.5-.47-.8,4.2-3.92-28.65-48.84-9.49,15.07.56,1-.12.08,15,25.64c-5.55,1.94-10.11,7.26-8.6,14.62a293.63,293.63,0,0,0,10.1,37c-5.21,4.52-10.42,9-15.63,13.53q-7.14-24.33-14.31-48.68A12.41,12.41,0,0,0,164,169l-56.2,1.45a11.45,11.45,0,0,0-1.7.21l-14.52-13c-11.83-10.59-29.36,6.83-17.46,17.46ZM198.3,130.69,192.65,134l5.64-8.95,25.32,43.15-2.19,2Zm-43.49,63.22q4.06,13.82,8.1,27.6-15.07-13.48-30.17-27Z"/><text class="cls-1" transform="translate(449.36 1122.09)">INDE<tspan class="cls-11" x="159.35" y="0">P</tspan><tspan class="cls-12" x="202.57" y="0">ENDÊNCIA</tspan></text><path class="cls-4" d="M901.46,840.8a182.07,182.07,0,1,0-182.07,182.07A182.07,182.07,0,0,0,901.46,840.8Z"/><circle class="cls-5" cx="719.01" cy="840.8" r="164.2"/><g id="check-circle-outline"><path class="cls-6" d="M677.88,821.56,663.7,835.74l45.57,45.56L810.53,780l-14.18-14.17L709.27,853ZM800.4,840.8a81,81,0,1,1-81-81,79.19,79.19,0,0,1,22.28,3l16.2-16.2c-12.15-4-25.31-7.09-38.48-7.09-55.69,0-101.26,45.57-101.26,101.26S663.7,942.06,719.39,942.06,820.65,896.49,820.65,840.8Z"/></g></g></g></svg>